<svg width="24" height="24" viewBox="0 0 24 24" fill="none" xmlns="http://www.w3.org/2000/svg">
<path fill-rule="evenodd" clip-rule="evenodd" d="M7.42913 5.14286C7.27758 5.14286 7.13223 5.20306 7.02507 5.31022C6.9179 5.41739 6.8577 5.56273 6.8577 5.71429V8C6.8577 8.15155 6.9179 8.2969 7.02507 8.40406C7.13223 8.51122 7.27758 8.57143 7.42913 8.57143C7.58068 8.57143 7.72603 8.51122 7.83319 8.40406C7.94035 8.2969 8.00056 8.15155 8.00056 8V5.71429C8.00056 5.56273 7.94035 5.41739 7.83319 5.31022C7.72603 5.20306 7.58068 5.14286 7.42913 5.14286ZM7.42913 4C7.88379 4 8.31982 4.18061 8.64131 4.5021C8.9628 4.82359 9.14342 5.25963 9.14342 5.71429V8C9.14342 8.45466 8.9628 8.89069 8.64131 9.21218C8.31982 9.53367 7.88379 9.71429 7.42913 9.71429C6.97447 9.71429 6.53844 9.53367 6.21695 9.21218C5.89546 8.89069 5.71484 8.45466 5.71484 8V5.71429C5.71484 5.25963 5.89546 4.82359 6.21695 4.5021C6.53844 4.18061 6.97447 4 7.42913 4Z" fill="#303030"/>
<path fill-rule="evenodd" clip-rule="evenodd" d="M8 6.85707C8 6.54148 8.25584 6.28564 8.57143 6.28564H21.1429C21.4585 6.28564 21.7143 6.54148 21.7143 6.85707C21.7143 7.17266 21.4585 7.4285 21.1429 7.4285H8.57143C8.25584 7.4285 8 7.17266 8 6.85707Z" fill="#303030"/>
<path fill-rule="evenodd" clip-rule="evenodd" d="M2.28613 6.85707C2.28613 6.54148 2.54197 6.28564 2.85756 6.28564H6.28613C6.60172 6.28564 6.85756 6.54148 6.85756 6.85707C6.85756 7.17266 6.60172 7.4285 6.28613 7.4285H2.85756C2.54197 7.4285 2.28613 7.17266 2.28613 6.85707Z" fill="#303030"/>
<path fill-rule="evenodd" clip-rule="evenodd" d="M7.42913 16.5716C7.27758 16.5716 7.13223 16.6318 7.02507 16.7389C6.9179 16.8461 6.8577 16.9914 6.8577 17.143V19.4287C6.8577 19.5803 6.91791 19.7256 7.02507 19.8328C7.13223 19.9399 7.27758 20.0001 7.42913 20.0001C7.58068 20.0001 7.72603 19.9399 7.83319 19.8328C7.94035 19.7256 8.00056 19.5803 8.00056 19.4287V17.143C8.00056 16.9914 7.94035 16.8461 7.83319 16.7389C7.72603 16.6318 7.58068 16.5716 7.42913 16.5716ZM6.21695 15.9308C6.53844 15.6093 6.97447 15.4287 7.42913 15.4287C7.88379 15.4287 8.31982 15.6093 8.64131 15.9308C8.9628 16.2523 9.14342 16.6883 9.14342 17.143V19.4287C9.14342 19.8834 8.9628 20.3194 8.64131 20.6409C8.31982 20.9624 7.88379 21.143 7.42913 21.143C6.97447 21.143 6.53844 20.9624 6.21695 20.6409C5.89546 20.3194 5.71484 19.8834 5.71484 19.4287V17.143C5.71484 16.6883 5.89546 16.2523 6.21695 15.9308Z" fill="#303030"/>
<path fill-rule="evenodd" clip-rule="evenodd" d="M8 18.2858C8 17.9702 8.25584 17.7144 8.57143 17.7144H21.1429C21.4585 17.7144 21.7143 17.9702 21.7143 18.2858C21.7143 18.6014 21.4585 18.8572 21.1429 18.8572H8.57143C8.25584 18.8572 8 18.6014 8 18.2858Z" fill="#303030"/>
<path fill-rule="evenodd" clip-rule="evenodd" d="M2.28613 18.2858C2.28613 17.9702 2.54197 17.7144 2.85756 17.7144H6.28613C6.60172 17.7144 6.85756 17.9702 6.85756 18.2858C6.85756 18.6014 6.60172 18.8572 6.28613 18.8572H2.85756C2.54197 18.8572 2.28613 18.6014 2.28613 18.2858Z" fill="#303030"/>
<path fill-rule="evenodd" clip-rule="evenodd" d="M16.5717 10.8572C16.4202 10.8572 16.2748 10.9174 16.1676 11.0246C16.0605 11.1317 16.0003 11.2771 16.0003 11.4286V13.7144C16.0003 13.8659 16.0605 14.0113 16.1676 14.1184C16.2748 14.2256 16.4202 14.2858 16.5717 14.2858C16.7233 14.2858 16.8686 14.2256 16.9758 14.1184C17.0829 14.0113 17.1431 13.8659 17.1431 13.7144V11.4286C17.1431 11.2771 17.0829 11.1317 16.9758 11.0246C16.8686 10.9174 16.7233 10.8572 16.5717 10.8572ZM16.5717 9.71436C17.0264 9.71436 17.4624 9.89497 17.7839 10.2165C18.1054 10.5379 18.286 10.974 18.286 11.4286V13.7144C18.286 14.169 18.1054 14.605 17.7839 14.9265C17.4624 15.248 17.0264 15.4286 16.5717 15.4286C16.1171 15.4286 15.681 15.248 15.3595 14.9265C15.038 14.605 14.8574 14.169 14.8574 13.7144V11.4286C14.8574 10.974 15.038 10.5379 15.3595 10.2165C15.681 9.89497 16.1171 9.71436 16.5717 9.71436Z" fill="#303030"/>
<path fill-rule="evenodd" clip-rule="evenodd" d="M2.28613 12.5714C2.28613 12.2558 2.54197 12 2.85756 12H15.429C15.7446 12 16.0004 12.2558 16.0004 12.5714C16.0004 12.887 15.7446 13.1429 15.429 13.1429H2.85756C2.54197 13.1429 2.28613 12.887 2.28613 12.5714Z" fill="#303030"/>
<path fill-rule="evenodd" clip-rule="evenodd" d="M17.1436 12.5714C17.1436 12.2558 17.3994 12 17.715 12H21.1436C21.4591 12 21.715 12.2558 21.715 12.5714C21.715 12.887 21.4591 13.1429 21.1436 13.1429H17.715C17.3994 13.1429 17.1436 12.887 17.1436 12.5714Z" fill="#303030"/>
</svg>
