<svg width="130" height="31" viewBox="0 0 130 31" fill="none" xmlns="http://www.w3.org/2000/svg">
<g clip-path="url(#clip0_1474_2809)">
<path d="M14.9996 0.90332C7.04661 0.90332 0.599609 7.35032 0.599609 15.3033C0.599609 23.2563 7.04661 29.7033 14.9996 29.7033C22.9526 29.7033 29.3996 23.2563 29.3996 15.3033C29.3996 7.35032 22.9526 0.90332 14.9996 0.90332ZM18.4106 10.8543H16.2461C15.9896 10.8543 15.7046 11.1918 15.7046 11.6403V13.2033H18.4121L18.0026 15.4323H15.7046V22.1238H13.1501V15.4323H10.8326V13.2033H13.1501V11.8923C13.1501 10.0113 14.4551 8.48282 16.2461 8.48282H18.4106V10.8543V10.8543Z" fill="white"/>
</g>
<g clip-path="url(#clip1_1474_2809)">
<path d="M115 0.90332C107.047 0.90332 100.6 7.35032 100.6 15.3033C100.6 23.2563 107.047 29.7033 115 29.7033C122.953 29.7033 129.4 23.2563 129.4 15.3033C129.4 7.35032 122.953 0.90332 115 0.90332ZM120.857 12.6993C120.863 12.8223 120.865 12.9453 120.865 13.0653C120.865 16.8153 118.013 21.1368 112.796 21.1368C111.255 21.1394 109.745 20.6966 108.449 19.8618C108.67 19.8888 108.896 19.8993 109.126 19.8993C110.455 19.8993 111.677 19.4478 112.648 18.6858C112.056 18.6742 111.483 18.4784 111.008 18.1256C110.533 17.7728 110.18 17.2807 109.999 16.7178C110.423 16.7986 110.861 16.7817 111.278 16.6683C110.636 16.5385 110.059 16.1907 109.644 15.6838C109.229 15.1769 109.003 14.5422 109.003 13.8873V13.8528C109.385 14.0643 109.823 14.1933 110.288 14.2083C109.686 13.8077 109.26 13.1923 109.097 12.488C108.934 11.7837 109.046 11.0437 109.411 10.4193C110.123 11.2953 111.012 12.0119 112.018 12.5228C113.025 13.0336 114.128 13.3273 115.256 13.3848C115.113 12.7763 115.174 12.1374 115.432 11.5676C115.689 10.9977 116.127 10.5288 116.678 10.2337C117.229 9.93863 117.863 9.8339 118.479 9.93583C119.096 10.0378 119.662 10.3406 120.089 10.7973C120.724 10.6717 121.333 10.4389 121.889 10.1088C121.678 10.766 121.235 11.3241 120.643 11.6793C121.205 11.6116 121.754 11.4604 122.272 11.2308C121.891 11.8007 121.412 12.298 120.857 12.6993V12.6993Z" fill="white"/>
</g>
<g clip-path="url(#clip2_1474_2809)">
<path d="M69.4996 15.3033C69.4996 16.4968 69.0255 17.6414 68.1816 18.4853C67.3377 19.3292 66.1931 19.8033 64.9996 19.8033C63.8061 19.8033 62.6615 19.3292 61.8176 18.4853C60.9737 17.6414 60.4996 16.4968 60.4996 15.3033C60.4996 15.0468 60.5266 14.7963 60.5731 14.5533H58.9996V20.5488C58.9996 20.9658 59.3371 21.3033 59.7541 21.3033H70.2466C70.4465 21.3029 70.638 21.2233 70.7792 21.0818C70.9203 20.9404 70.9996 20.7487 70.9996 20.5488V14.5533H69.4261C69.4726 14.7963 69.4996 15.0468 69.4996 15.3033V15.3033ZM64.9996 18.3033C65.3937 18.3032 65.7839 18.2255 66.1479 18.0746C66.5119 17.9237 66.8427 17.7026 67.1212 17.4239C67.3998 17.1452 67.6208 16.8143 67.7715 16.4502C67.9222 16.0861 67.9997 15.6959 67.9996 15.3018C67.9995 14.9078 67.9218 14.5176 67.7709 14.1535C67.62 13.7895 67.3989 13.4588 67.1202 13.1802C66.8415 12.9016 66.5106 12.6807 66.1465 12.53C65.7824 12.3792 65.3922 12.3017 64.9981 12.3018C64.2023 12.302 63.4391 12.6184 62.8765 13.1813C62.3139 13.7441 61.9979 14.5075 61.9981 15.3033C61.9983 16.0992 62.3147 16.8623 62.8775 17.425C63.4404 17.9876 64.2038 18.3035 64.9996 18.3033V18.3033ZM68.5996 12.1533H70.3981C70.5176 12.1533 70.6322 12.106 70.7168 12.0216C70.8015 11.9373 70.8492 11.8228 70.8496 11.7033V9.90482C70.8496 9.78507 70.802 9.67023 70.7174 9.58556C70.6327 9.50089 70.5179 9.45332 70.3981 9.45332H68.5996C68.4799 9.45332 68.365 9.50089 68.2804 9.58556C68.1957 9.67023 68.1481 9.78507 68.1481 9.90482V11.7033C68.1496 11.9508 68.3521 12.1533 68.5996 12.1533V12.1533ZM64.9996 0.90332C61.1805 0.90332 57.5178 2.42046 54.8173 5.12098C52.1167 7.82151 50.5996 11.4842 50.5996 15.3033C50.5996 19.1224 52.1167 22.7851 54.8173 25.4857C57.5178 28.1862 61.1805 29.7033 64.9996 29.7033C66.8906 29.7033 68.7632 29.3309 70.5103 28.6072C72.2573 27.8835 73.8448 26.8228 75.182 25.4857C76.5191 24.1485 77.5798 22.5611 78.3035 20.814C79.0271 19.0669 79.3996 17.1944 79.3996 15.3033C79.3996 13.4123 79.0271 11.5398 78.3035 9.79268C77.5798 8.04559 76.5191 6.45815 75.182 5.12098C73.8448 3.78382 72.2573 2.72312 70.5103 1.99946C68.7632 1.27579 66.8906 0.90332 64.9996 0.90332V0.90332ZM72.4996 21.1368C72.4996 22.0533 71.7496 22.8033 70.8331 22.8033H59.1661C58.2496 22.8033 57.4996 22.0533 57.4996 21.1368V9.46982C57.4996 8.55332 58.2496 7.80332 59.1661 7.80332H70.8331C71.7496 7.80332 72.4996 8.55332 72.4996 9.46982V21.1368V21.1368Z" fill="white"/>
</g>
<defs>
<clipPath id="clip0_1474_2809">
<rect width="30" height="30" fill="white" transform="translate(0 0.303223)"/>
</clipPath>
<clipPath id="clip1_1474_2809">
<rect width="30" height="30" fill="white" transform="translate(100 0.303223)"/>
</clipPath>
<clipPath id="clip2_1474_2809">
<rect width="30" height="30" fill="white" transform="translate(50 0.303223)"/>
</clipPath>
</defs>
</svg>
