<svg width="19" height="17" viewBox="0 0 19 17" fill="none" xmlns="http://www.w3.org/2000/svg">
<path d="M18.1989 5.78542L12.561 5.05545L10.0407 0.503503C9.97186 0.378873 9.85862 0.277982 9.71873 0.216657C9.36788 0.0623534 8.94154 0.190939 8.76612 0.503503L6.24584 5.05545L0.607943 5.78542C0.452507 5.80521 0.310394 5.87049 0.201588 5.9694C0.0700486 6.08985 -0.0024357 6.25189 6.24985e-05 6.41993C0.0025607 6.58797 0.079837 6.74824 0.214911 6.86555L4.294 10.4086L3.3303 15.4116C3.3077 15.528 3.32215 15.6476 3.37203 15.7571C3.4219 15.8665 3.50519 15.9613 3.61246 16.0307C3.71972 16.1001 3.84667 16.1414 3.97891 16.1498C4.11115 16.1582 4.24338 16.1334 4.36062 16.0782L9.40341 13.7162L14.4462 16.0782C14.5839 16.1435 14.7438 16.1653 14.897 16.1415C15.2833 16.0822 15.5431 15.7558 15.4765 15.4116L14.5128 10.4086L18.5919 6.86555C18.7029 6.76861 18.7762 6.642 18.7984 6.50353C18.8584 6.15733 18.5875 5.83686 18.1989 5.78542V5.78542Z" fill="#FDBF00"/>
</svg>
