<svg width="16" height="17" viewBox="0 0 16 17" fill="none" xmlns="http://www.w3.org/2000/svg">
<path d="M15.4744 6.36159L10.6806 5.63162L8.53756 1.07967C8.47903 0.955045 8.38274 0.854154 8.26379 0.792829C7.96547 0.638525 7.60295 0.767111 7.4538 1.07967L5.31081 5.63162L0.516931 6.36159C0.384765 6.38138 0.263926 6.44666 0.17141 6.54557C0.059562 6.66602 -0.00207107 6.82807 5.31422e-05 6.9961C0.00217735 7.16414 0.0678851 7.32442 0.182738 7.44172L3.65117 10.9848L2.83174 15.9877C2.81252 16.1041 2.82481 16.2238 2.86722 16.3333C2.90962 16.4427 2.98045 16.5375 3.07165 16.6069C3.16286 16.6763 3.27081 16.7175 3.38325 16.7259C3.49569 16.7343 3.60813 16.7096 3.70781 16.6544L7.99568 14.2924L12.2835 16.6544C12.4006 16.7197 12.5366 16.7415 12.6668 16.7177C12.9954 16.6584 13.2163 16.332 13.1596 15.9877L12.3402 10.9848L15.8086 7.44172C15.903 7.34478 15.9653 7.21818 15.9842 7.0797C16.0352 6.73351 15.8048 6.41303 15.4744 6.36159V6.36159Z" fill="#FDBF00"/>
</svg>
