<svg width="19" height="17" viewBox="0 0 19 17" fill="none" xmlns="http://www.w3.org/2000/svg">
<path d="M18.1989 6.20974L12.561 5.47977L10.0407 0.927819C9.97186 0.803189 9.85862 0.702299 9.71873 0.640973C9.36788 0.48667 8.94154 0.615256 8.76612 0.927819L6.24584 5.47977L0.607943 6.20974C0.452507 6.22952 0.310394 6.2948 0.201588 6.39372C0.0700486 6.51416 -0.0024357 6.67621 6.24985e-05 6.84425C0.0025607 7.01228 0.079837 7.17256 0.214911 7.28986L4.294 10.8329L3.3303 15.8359C3.3077 15.9523 3.32215 16.072 3.37203 16.1814C3.4219 16.2908 3.50519 16.3856 3.61246 16.455C3.71972 16.5244 3.84667 16.5657 3.97891 16.5741C4.11115 16.5825 4.24338 16.5577 4.36062 16.5026L9.40341 14.1405L14.4462 16.5026C14.5839 16.5678 14.7438 16.5896 14.897 16.5659C15.2833 16.5065 15.5431 16.1801 15.4765 15.8359L14.5128 10.8329L18.5919 7.28986C18.7029 7.19293 18.7762 7.06632 18.7984 6.92784C18.8584 6.58165 18.5875 6.26117 18.1989 6.20974V6.20974Z" fill="#FDBF00"/>
</svg>
