<svg width="25" height="25" viewBox="0 0 25 25" fill="none" xmlns="http://www.w3.org/2000/svg">
<g clip-path="url(#clip0_1474_2721)">
<path d="M12.8727 22.619C10.2494 22.619 7.73348 21.5769 5.8785 19.7219C4.02352 17.8669 2.9814 15.351 2.9814 12.7277C2.9814 10.1043 4.02352 7.58846 5.8785 5.73348C7.73348 3.8785 10.2494 2.83638 12.8727 2.83638C15.496 2.83638 18.0119 3.8785 19.8669 5.73348C21.7219 7.58846 22.764 10.1043 22.764 12.7277C22.764 15.351 21.7219 17.8669 19.8669 19.7219C18.0119 21.5769 15.496 22.619 12.8727 22.619ZM12.8727 24.032C15.8708 24.032 18.7461 22.841 20.8661 20.7211C22.9861 18.6011 24.177 15.7258 24.177 12.7277C24.177 9.72958 22.9861 6.85428 20.8661 4.73431C18.7461 2.61433 15.8708 1.42334 12.8727 1.42334C9.8746 1.42334 6.9993 2.61433 4.87932 4.73431C2.75935 6.85428 1.56836 9.72958 1.56836 12.7277C1.56836 15.7258 2.75935 18.6011 4.87932 20.7211C6.9993 22.841 9.8746 24.032 12.8727 24.032V24.032Z" fill="#1262AF"/>
<path d="M10.3489 7.92733C10.4822 7.85869 10.6319 7.82815 10.7814 7.83908C10.931 7.85001 11.0746 7.90198 11.1965 7.98927L16.9012 12.064C17.0068 12.1394 17.0929 12.239 17.1523 12.3543C17.2117 12.4697 17.2427 12.5976 17.2427 12.7274C17.2427 12.8572 17.2117 12.9851 17.1523 13.1005C17.0929 13.2159 17.0068 13.3154 16.9012 13.3908L11.1965 17.4656C11.0746 17.5528 10.9311 17.6047 10.7816 17.6156C10.6322 17.6266 10.4826 17.5961 10.3493 17.5275C10.2161 17.4589 10.1043 17.355 10.0263 17.227C9.94831 17.099 9.90711 16.952 9.90723 16.8022V8.65264C9.90707 8.50282 9.94821 8.35586 10.0261 8.22791C10.1041 8.09995 10.2158 7.99595 10.3489 7.92733V7.92733Z" fill="#1262AF"/>
</g>
<defs>
<clipPath id="clip0_1474_2721">
<rect width="24" height="24" fill="white" transform="translate(0.873047 0.727539)"/>
</clipPath>
</defs>
</svg>
